<svg width="24" height="24" viewBox="0 0 24 24" fill="none" xmlns="http://www.w3.org/2000/svg">
<path fill-rule="evenodd" clip-rule="evenodd" d="M15.8398 19.6655H18.7091L18.7187 11.6274L11.9992 4.72554L5.28929 11.588L5.28353 19.6655H8.1625V12.9479C8.1625 12.4172 8.59147 11.9882 9.12216 11.9882H14.8801C15.4098 11.9882 15.8398 12.4172 15.8398 12.9479V19.6655ZM13.9204 19.6658H10.0818V13.9079H13.9204V19.6658ZM20.0844 10.2464L12.6864 2.68042C12.3246 2.31095 11.6758 2.31095 11.314 2.68042L3.91508 10.2473C3.56481 10.6072 3.36328 11.1101 3.36328 11.6273V19.6654C3.36328 20.7239 4.17611 21.5847 5.17511 21.5847H9.12123H14.8792H18.8243C19.8233 21.5847 20.6371 20.7239 20.6371 19.6654V11.6273C20.6371 11.1101 20.4356 10.6072 20.0844 10.2464V10.2464Z" fill="#5657A8"/>
</svg>
