<svg width="21" height="21" viewBox="0 0 21 21" fill="none" xmlns="http://www.w3.org/2000/svg">
<path d="M19.8096 8.57977C19.5212 8.24239 19.1603 7.9708 18.7524 7.78417C18.3445 7.59755 17.8995 7.50043 17.4489 7.49968H12.7685L13.3433 6.06955C13.5823 5.44338 13.662 4.77004 13.5753 4.1073C13.4886 3.44456 13.2383 2.8122 12.8457 2.26445C12.453 1.71671 11.9299 1.26993 11.3212 0.962451C10.7124 0.654971 10.0362 0.495964 9.35055 0.499068C9.15311 0.499469 8.95998 0.555348 8.79431 0.660005C8.62864 0.764661 8.49747 0.913654 8.41652 1.08912L5.49127 7.49968H3.07922C2.26256 7.49968 1.47935 7.81577 0.901881 8.37843C0.324416 8.94109 0 9.70422 0 10.4999V17.5005C0 18.2963 0.324416 19.0594 0.901881 19.6221C1.47935 20.1847 2.26256 20.5008 3.07922 20.5008H16.1454C16.8657 20.5006 17.5632 20.2543 18.1164 19.8048C18.6696 19.3553 19.0436 18.731 19.1732 18.0406L20.4768 11.04C20.5574 10.6073 20.5394 10.1627 20.4241 9.73755C20.3089 9.31241 20.0991 8.91715 19.8096 8.57977ZM5.13203 18.5006H3.07922C2.807 18.5006 2.54593 18.3953 2.35344 18.2077C2.16095 18.0202 2.05281 17.7658 2.05281 17.5005V10.4999C2.05281 10.2347 2.16095 9.98032 2.35344 9.79277C2.54593 9.60522 2.807 9.49985 3.07922 9.49985H5.13203V18.5006ZM18.4753 10.68L17.1718 17.6806C17.128 17.9135 17.0009 18.1238 16.8129 18.274C16.625 18.4242 16.3884 18.5045 16.1454 18.5006H7.18484V8.70978L9.97666 2.58925C10.264 2.67088 10.5309 2.80968 10.7605 2.99687C10.99 3.18406 11.1773 3.41559 11.3104 3.67684C11.4435 3.93809 11.5195 4.22338 11.5338 4.51472C11.548 4.80605 11.5001 5.0971 11.3931 5.36949L10.8491 6.79962C10.7332 7.1019 10.6941 7.42702 10.735 7.74723C10.776 8.06744 10.8959 8.37324 11.0845 8.63852C11.2731 8.9038 11.5247 9.12068 11.8179 9.27067C12.1112 9.42066 12.4373 9.49929 12.7685 9.49985H17.4489C17.5997 9.49961 17.7487 9.53175 17.8853 9.59398C18.0219 9.6562 18.1427 9.74699 18.2392 9.85988C18.3381 9.97122 18.4105 10.1024 18.4513 10.2442C18.4921 10.386 18.5003 10.5348 18.4753 10.68Z" fill="#545EB2"/>
</svg>
