<svg width="25" height="25" viewBox="0 0 25 25" fill="none" xmlns="http://www.w3.org/2000/svg">
<path fill-rule="evenodd" clip-rule="evenodd" d="M19.2171 21.0304C19.2171 21.619 18.7575 22.0967 18.1889 22.0967C17.6203 22.0967 17.1607 21.619 17.1607 21.0304C17.1607 18.0906 14.8545 15.699 12.0197 15.699C9.18494 15.699 6.87867 18.0906 6.87867 21.0304C6.87867 21.619 6.41907 22.0967 5.85047 22.0967C5.28187 22.0967 4.82227 21.619 4.82227 21.0304C4.82227 16.9145 8.05186 13.5664 12.0197 13.5664C15.9875 13.5664 19.2171 16.9145 19.2171 21.0304ZM12.02 5.03631C13.1541 5.03631 14.0764 5.99277 14.0764 7.16888C14.0764 8.34499 13.1541 9.30145 12.02 9.30145C10.8859 9.30145 9.96356 8.34499 9.96356 7.16888C9.96356 5.99277 10.8859 5.03631 12.02 5.03631ZM12.0202 11.4336C14.2885 11.4336 16.133 9.52069 16.133 7.16846C16.133 4.81624 14.2885 2.90332 12.0202 2.90332C9.75201 2.90332 7.90741 4.81624 7.90741 7.16846C7.90741 9.52069 9.75201 11.4336 12.0202 11.4336Z" fill="#A3A3AE"/>
</svg>
