<svg width="21" height="21" viewBox="0 0 21 21" fill="none" xmlns="http://www.w3.org/2000/svg">
<path d="M16.4751 12.5129C15.8689 12.5168 15.2712 12.6513 14.7248 12.9068C14.1784 13.1623 13.697 13.5324 13.3151 13.9905L8.08258 11.6443C8.3286 10.9113 8.3286 10.121 8.08258 9.38797L13.3151 7.04176C13.9323 7.76656 14.7929 8.25588 15.7448 8.42337C16.6967 8.59086 17.6788 8.42575 18.5178 7.95718C19.3568 7.48862 19.9987 6.74672 20.3303 5.86241C20.6619 4.97811 20.6618 4.00825 20.33 3.124C19.9983 2.23976 19.3562 1.49797 18.5172 1.02955C17.6781 0.561136 16.6959 0.396202 15.744 0.563861C14.7922 0.731521 13.9317 1.22099 13.3146 1.9459C12.6975 2.6708 12.3634 3.58453 12.3712 4.52583C12.3743 4.76368 12.3983 5.00083 12.443 5.23468L7.02582 7.66076C6.44828 7.11123 5.71692 6.73977 4.92338 6.59292C4.12985 6.44606 3.30942 6.53036 2.5649 6.83523C1.82038 7.1401 1.18487 7.65199 0.737986 8.30678C0.291107 8.96156 0.0527344 9.73011 0.0527344 10.5161C0.0527344 11.3022 0.291107 12.0707 0.737986 12.7255C1.18487 13.3803 1.82038 13.8922 2.5649 14.1971C3.30942 14.5019 4.12985 14.5862 4.92338 14.4394C5.71692 14.2925 6.44828 13.9211 7.02582 13.3715L12.443 15.7976C12.3983 16.0315 12.3743 16.2686 12.3712 16.5065C12.3712 17.2963 12.6119 18.0684 13.0628 18.7251C13.5138 19.3819 14.1547 19.8937 14.9046 20.196C15.6545 20.4983 16.4797 20.5774 17.2758 20.4233C18.0718 20.2692 18.8031 19.8888 19.377 19.3303C19.951 18.7718 20.3418 18.0602 20.5002 17.2856C20.6585 16.5109 20.5773 15.7079 20.2667 14.9782C19.956 14.2485 19.43 13.6248 18.7551 13.1859C18.0803 12.7471 17.2868 12.5129 16.4751 12.5129ZM16.4751 2.52906C16.881 2.52906 17.2777 2.64617 17.6151 2.86558C17.9526 3.08498 18.2156 3.39684 18.3709 3.7617C18.5262 4.12656 18.5668 4.52805 18.4877 4.91538C18.4085 5.30272 18.213 5.65851 17.9261 5.93776C17.6391 6.21701 17.2735 6.40719 16.8754 6.48423C16.4774 6.56128 16.0648 6.52174 15.6899 6.37061C15.3149 6.21948 14.9944 5.96354 14.769 5.63518C14.5435 5.30681 14.4232 4.92075 14.4232 4.52583C14.4232 3.99625 14.6393 3.48837 15.0242 3.1139C15.409 2.73943 15.9309 2.52906 16.4751 2.52906ZM4.16333 12.5129C3.75749 12.5129 3.36076 12.3958 3.02332 12.1764C2.68588 11.957 2.42287 11.6451 2.26756 11.2803C2.11225 10.9154 2.07162 10.5139 2.15079 10.1266C2.22997 9.73926 2.4254 9.38347 2.71237 9.10421C2.99934 8.82496 3.36497 8.63479 3.76301 8.55774C4.16105 8.48069 4.57364 8.52024 4.94858 8.67137C5.32353 8.8225 5.644 9.07843 5.86948 9.4068C6.09495 9.73516 6.2153 10.1212 6.2153 10.5161C6.2153 11.0457 5.99911 11.5536 5.61429 11.9281C5.22947 12.3025 4.70755 12.5129 4.16333 12.5129ZM16.4751 18.5032C16.0693 18.5032 15.6726 18.3861 15.3351 18.1667C14.9977 17.9473 14.7347 17.6355 14.5794 17.2706C14.424 16.9057 14.3834 16.5042 14.4626 16.1169C14.5418 15.7296 14.7372 15.3738 15.0242 15.0945C15.3111 14.8153 15.6768 14.6251 16.0748 14.5481C16.4728 14.471 16.8854 14.5105 17.2604 14.6617C17.6353 14.8128 17.9558 15.0687 18.1813 15.3971C18.4067 15.7255 18.5271 16.1115 18.5271 16.5065C18.5271 17.036 18.3109 17.5439 17.9261 17.9184C17.5413 18.2929 17.0193 18.5032 16.4751 18.5032Z" fill="#545CAE"/>
</svg>
